<mxfile host="app.diagrams.net" modified="2024-02-20T12:04:04.523Z" agent="Mozilla/5.0 (Macintosh; Intel Mac OS X 10_15_7) AppleWebKit/537.36 (KHTML, like Gecko) Chrome/121.0.0.0 Safari/537.36" etag="COhYGz_wOXwTLWQPo5Af" version="23.0.2" type="github">
  <diagram name="第 1 页" id="gR2kglzu-Ya5U8DhUCgC">
    <mxGraphModel dx="1434" dy="820" grid="1" gridSize="10" guides="1" tooltips="1" connect="1" arrows="1" fold="1" page="1" pageScale="1" pageWidth="1200" pageHeight="500" math="0" shadow="0">
      <root>
        <mxCell id="0" />
        <mxCell id="1" parent="0" />
        <mxCell id="Aq2d2gOWsgnC8NacIR4U-17" value="" style="rounded=1;whiteSpace=wrap;html=1;fillColor=#dae8fc;strokeColor=#6c8ebf;" vertex="1" parent="1">
          <mxGeometry x="62.5" y="150" width="390" height="60" as="geometry" />
        </mxCell>
        <mxCell id="Aq2d2gOWsgnC8NacIR4U-13" value="" style="rounded=1;whiteSpace=wrap;html=1;fillColor=#d5e8d4;strokeColor=#82b366;" vertex="1" parent="1">
          <mxGeometry x="15" y="5" width="485" height="60" as="geometry" />
        </mxCell>
        <mxCell id="Aq2d2gOWsgnC8NacIR4U-1" value="年龄" style="rounded=0;whiteSpace=wrap;html=1;" vertex="1" parent="1">
          <mxGeometry x="30" y="20" width="70" height="30" as="geometry" />
        </mxCell>
        <mxCell id="Aq2d2gOWsgnC8NacIR4U-2" value="职业" style="rounded=0;whiteSpace=wrap;html=1;" vertex="1" parent="1">
          <mxGeometry x="110" y="20" width="70" height="30" as="geometry" />
        </mxCell>
        <mxCell id="Aq2d2gOWsgnC8NacIR4U-3" value="抗风险" style="rounded=0;whiteSpace=wrap;html=1;" vertex="1" parent="1">
          <mxGeometry x="190" y="20" width="70" height="30" as="geometry" />
        </mxCell>
        <mxCell id="Aq2d2gOWsgnC8NacIR4U-4" value="持仓信息" style="rounded=0;whiteSpace=wrap;html=1;" vertex="1" parent="1">
          <mxGeometry x="270" y="20" width="70" height="30" as="geometry" />
        </mxCell>
        <mxCell id="Aq2d2gOWsgnC8NacIR4U-5" value="" style="endArrow=none;dashed=1;html=1;dashPattern=1 3;strokeWidth=4;rounded=0;" edge="1" parent="1">
          <mxGeometry width="50" height="50" relative="1" as="geometry">
            <mxPoint x="450" y="34.5" as="sourcePoint" />
            <mxPoint x="490" y="35" as="targetPoint" />
          </mxGeometry>
        </mxCell>
        <mxCell id="Aq2d2gOWsgnC8NacIR4U-6" value="画像Agent-LLM" style="rounded=1;whiteSpace=wrap;html=1;fillColor=#fff2cc;strokeColor=#d6b656;" vertex="1" parent="1">
          <mxGeometry x="167.5" y="90" width="180" height="30" as="geometry" />
        </mxCell>
        <mxCell id="Aq2d2gOWsgnC8NacIR4U-7" value="投资兴趣" style="rounded=0;whiteSpace=wrap;html=1;" vertex="1" parent="1">
          <mxGeometry x="72.5" y="165" width="70" height="30" as="geometry" />
        </mxCell>
        <mxCell id="Aq2d2gOWsgnC8NacIR4U-8" value="产品倾向" style="rounded=0;whiteSpace=wrap;html=1;" vertex="1" parent="1">
          <mxGeometry x="232.5" y="165" width="70" height="30" as="geometry" />
        </mxCell>
        <mxCell id="Aq2d2gOWsgnC8NacIR4U-9" value="收益预期" style="rounded=0;whiteSpace=wrap;html=1;" vertex="1" parent="1">
          <mxGeometry x="312.5" y="165" width="70" height="30" as="geometry" />
        </mxCell>
        <mxCell id="Aq2d2gOWsgnC8NacIR4U-10" value="" style="endArrow=none;dashed=1;html=1;dashPattern=1 3;strokeWidth=4;rounded=0;" edge="1" parent="1">
          <mxGeometry width="50" height="50" relative="1" as="geometry">
            <mxPoint x="392.5" y="179.5" as="sourcePoint" />
            <mxPoint x="432.5" y="180" as="targetPoint" />
          </mxGeometry>
        </mxCell>
        <mxCell id="Aq2d2gOWsgnC8NacIR4U-11" value="投资时长" style="rounded=0;whiteSpace=wrap;html=1;" vertex="1" parent="1">
          <mxGeometry x="152.5" y="165" width="70" height="30" as="geometry" />
        </mxCell>
        <mxCell id="Aq2d2gOWsgnC8NacIR4U-12" value="浏览足迹" style="rounded=0;whiteSpace=wrap;html=1;" vertex="1" parent="1">
          <mxGeometry x="360" y="20" width="70" height="30" as="geometry" />
        </mxCell>
        <mxCell id="Aq2d2gOWsgnC8NacIR4U-16" value="" style="endArrow=classic;html=1;rounded=0;exitX=0.5;exitY=1;exitDx=0;exitDy=0;entryX=0.5;entryY=0;entryDx=0;entryDy=0;" edge="1" parent="1" source="Aq2d2gOWsgnC8NacIR4U-13" target="Aq2d2gOWsgnC8NacIR4U-6">
          <mxGeometry width="50" height="50" relative="1" as="geometry">
            <mxPoint x="570" y="350" as="sourcePoint" />
            <mxPoint x="620" y="300" as="targetPoint" />
          </mxGeometry>
        </mxCell>
        <mxCell id="Aq2d2gOWsgnC8NacIR4U-18" value="" style="endArrow=classic;html=1;rounded=0;exitX=0.5;exitY=1;exitDx=0;exitDy=0;entryX=0.5;entryY=0;entryDx=0;entryDy=0;" edge="1" parent="1" source="Aq2d2gOWsgnC8NacIR4U-6" target="Aq2d2gOWsgnC8NacIR4U-17">
          <mxGeometry width="50" height="50" relative="1" as="geometry">
            <mxPoint x="570" y="350" as="sourcePoint" />
            <mxPoint x="620" y="300" as="targetPoint" />
          </mxGeometry>
        </mxCell>
        <mxCell id="Aq2d2gOWsgnC8NacIR4U-19" value="用户基础信息" style="text;html=1;strokeColor=none;fillColor=none;align=center;verticalAlign=middle;whiteSpace=wrap;rounded=0;" vertex="1" parent="1">
          <mxGeometry x="502.5" y="20" width="100" height="30" as="geometry" />
        </mxCell>
        <mxCell id="Aq2d2gOWsgnC8NacIR4U-20" value="投资相关的画像信息" style="text;html=1;strokeColor=none;fillColor=none;align=center;verticalAlign=middle;whiteSpace=wrap;rounded=0;" vertex="1" parent="1">
          <mxGeometry x="452.5" y="165" width="150" height="30" as="geometry" />
        </mxCell>
      </root>
    </mxGraphModel>
  </diagram>
</mxfile>
